<?xml version="1.0" standalone="no"?>
<!DOCTYPE svg PUBLIC "-//W3C//DTD SVG 1.1//EN" "http://www.w3.org/Graphics/SVG/1.1/DTD/svg11.dtd" >
<svg xmlns="http://www.w3.org/2000/svg" xmlns:xlink="http://www.w3.org/1999/xlink" version="1.1">
<metadata></metadata>
<defs>
<font id="neue_hans_kendrickregular" horiz-adv-x="1241" >
<font-face units-per-em="2048" ascent="1536" descent="-512" />
<missing-glyph horiz-adv-x="512" />
<glyph unicode="&#xfb01;" horiz-adv-x="1177" d="M66 809v154h161v297q0 137 78 218t209 81q92 0 131 -29v-166q-20 16 -51 26.5t-59 10.5q-63 0 -101.5 -44t-38.5 -118v-276h254v-154h-254v-809h-168v809h-161zM811 1251q0 47 33 79t80 32q45 0 78 -32t33 -79q0 -45 -33 -77.5t-78 -32.5q-47 0 -80 32.5t-33 77.5zM840 0 v963h166v-963h-166z" />
<glyph unicode="&#xfb02;" horiz-adv-x="1122" d="M66 809v154h161v297q0 137 78 218t209 81q92 0 131 -29v-166q-20 16 -51 26.5t-59 10.5q-63 0 -101.5 -44t-38.5 -118v-276h254v-154h-254v-809h-168v809h-161zM811 0v1536h168v-1536h-168z" />
<glyph horiz-adv-x="0" />
<glyph horiz-adv-x="682" />
<glyph unicode=" "  horiz-adv-x="512" />
<glyph unicode="&#x09;" horiz-adv-x="512" />
<glyph unicode="&#xa0;" horiz-adv-x="512" />
<glyph unicode="!" horiz-adv-x="626" d="M199 94q0 47 33.5 81t80.5 34t81 -34t34 -81q0 -45 -34 -79.5t-81 -34.5q-45 0 -79.5 34.5t-34.5 79.5zM229 442v1094h168v-1094h-168z" />
<glyph unicode="&#x22;" horiz-adv-x="901" d="M199 893v643h159l2 -643h-161zM539 893l2 643h161v-643h-163z" />
<glyph unicode="#" horiz-adv-x="1619" d="M150 358l16 127h289l71 478h-290l20 124h285l53 361h123l-49 -361h387l51 361h125l-51 -361h290l-20 -124h-287l-67 -478h286l-16 -127h-287l-55 -358h-123l51 358h-391l-49 -358h-125l51 358h-288zM582 485h387l69 478h-389z" />
<glyph unicode="$" horiz-adv-x="1116" d="M61 221l125 125q147 -211 381 -211q135 0 224.5 73t89.5 191q0 82 -44 139.5t-109.5 93.5t-180.5 85q-137 57 -219 105t-137.5 129t-55.5 202q0 170 105.5 277.5t271.5 123.5v162h166v-172q190 -37 326 -196l-105 -109q-88 92 -164 127t-170 35q-113 0 -189.5 -63.5 t-76.5 -172.5q0 -82 45 -137t110.5 -89t186.5 -83q127 -51 209 -101t138 -135t56 -214q0 -175 -101 -283.5t-265 -134.5v-164h-166v160q-137 12 -255 77.5t-196 159.5z" />
<glyph unicode="%" horiz-adv-x="1406" d="M20 1245q0 84 42 156t115 113.5t159 41.5q84 0 155.5 -41.5t113.5 -113.5t42 -156q0 -86 -42 -158.5t-113.5 -115.5t-155.5 -43q-86 0 -159 43t-115 115.5t-42 158.5zM141 0l938 1536h181l-934 -1536h-185zM158 1245q0 -74 52 -126t126 -52q72 0 123 52t51 126 q0 72 -51 123t-123 51q-74 0 -126 -51t-52 -123zM760 299q0 84 42 155.5t114.5 113.5t156.5 42t157 -42t114.5 -113.5t41.5 -155.5q0 -86 -41.5 -158.5t-114.5 -114.5t-157 -42q-86 0 -157.5 42t-113.5 114.5t-42 158.5zM897 299q0 -74 51 -126t125 -52t125 52t51 126 q0 72 -52 123t-124 51q-74 0 -125 -51t-51 -123z" />
<glyph unicode="&#x26;" horiz-adv-x="1466" d="M102 418q0 102 39 178t106.5 139.5t196.5 161.5q-84 98 -120.5 177t-36.5 159q0 92 42 166t117.5 115.5t171.5 41.5t172 -40.5t119 -113.5t43 -161q0 -74 -32.5 -135.5t-85 -112.5t-146.5 -127l305 -395l174 221l129 -102l-196 -248l264 -342l-219 -4l-164 215 q-109 -113 -215.5 -174.5t-220.5 -61.5q-129 0 -229.5 56.5t-157 158t-56.5 228.5zM268 418q0 -70 35 -133.5t96.5 -103.5t132.5 -40q86 0 170 54.5t175 148.5l-328 426q-100 -74 -156.5 -123t-90.5 -105.5t-34 -123.5zM446 1231q0 -61 27 -107.5t63.5 -90.5t49.5 -58 q78 57 115.5 90t63.5 75t26 95q0 76 -53.5 123t-127.5 47q-76 0 -120 -47t-44 -127z" />
<glyph unicode="'" horiz-adv-x="557" d="M197 893v643h163v-643h-163z" />
<glyph unicode="(" horiz-adv-x="747" d="M154 647q0 408 112.5 696.5t306.5 413.5l76 -102q-170 -117 -266 -374t-96 -634q0 -383 96 -635t266 -368l-76 -105q-194 127 -306.5 410.5t-112.5 697.5z" />
<glyph unicode=")" horiz-adv-x="745" d="M94 -356q170 117 266.5 368.5t96.5 634.5q0 377 -96.5 634t-266.5 374l76 102q195 -125 307.5 -413.5t112.5 -696.5q0 -414 -112.5 -697.5t-307.5 -410.5z" />
<glyph unicode="*" horiz-adv-x="768" d="M41 1204v94l291 -16l-160 242l82 45l131 -250l129 250l84 -45l-162 -242l291 16v-94l-291 13l162 -238l-84 -49l-129 252l-131 -252l-82 49l160 238z" />
<glyph unicode="+" horiz-adv-x="1368" d="M197 596v160h407v407h160v-407h407v-160h-407v-408h-160v408h-407z" />
<glyph unicode="," horiz-adv-x="438" d="M119 -377l110 371q-29 14 -45 40.5t-16 59.5q0 47 35 81t80 34q47 0 80.5 -34t33.5 -81q0 -10 -4 -31l-4 -12l-145 -428h-125z" />
<glyph unicode="-" horiz-adv-x="901" d="M92 467v131h717v-131h-717z" />
<glyph unicode="." horiz-adv-x="413" d="M92 94q0 47 35 81t80 34q47 0 81 -34t34 -81t-34 -80.5t-81 -33.5t-81 33.5t-34 80.5z" />
<glyph unicode="/" horiz-adv-x="1226" d="M-23 -348l1082 2048h162l-1080 -2048h-164z" />
<glyph unicode="0" horiz-adv-x="1310" d="M102 768q0 225 69 404.5t193.5 281.5t290.5 102q164 0 290 -102t194.5 -281.5t68.5 -404.5q0 -221 -72.5 -401.5t-198.5 -283.5t-282 -103q-155 0 -282 103t-199 282.5t-72 402.5zM279 768q0 -190 46 -333.5t132 -222.5t200 -79q115 0 200 79t131 223.5t46 332.5 q0 195 -49 334t-135 209.5t-193 70.5q-109 0 -194.5 -70.5t-134.5 -209.5t-49 -334z" />
<glyph unicode="1" horiz-adv-x="1310" d="M297 1362v174h491v-1536h-174v1362h-317z" />
<glyph unicode="2" horiz-adv-x="1310" d="M143 0v16q336 346 507 556t226.5 329t55.5 221q0 123 -79 192.5t-198 69.5q-127 0 -202.5 -78.5t-75.5 -205.5l-189 2q0 133 62.5 237.5t170 162t241.5 57.5q127 0 228 -52.5t158.5 -148.5t57.5 -223q0 -145 -71.5 -296t-197.5 -306.5t-321 -358.5h672v-174h-1045z" />
<glyph unicode="3" horiz-adv-x="1310" d="M127 426l174 2q0 -129 99.5 -207t252.5 -78q156 0 254.5 81t98.5 220t-98.5 218t-254.5 79h-155v164h147q121 0 193.5 72t72.5 178t-71.5 172t-194.5 66q-119 0 -193.5 -62.5t-74.5 -163.5h-174q0 113 58 202t159.5 138t224.5 49t223.5 -49t158.5 -138t58 -204 q0 -113 -57 -196.5t-162 -128.5q148 -45 231 -150.5t83 -253.5q0 -135 -70 -239.5t-189.5 -160.5t-267.5 -56q-145 0 -266 56t-190.5 157.5t-69.5 232.5z" />
<glyph unicode="4" horiz-adv-x="1310" d="M68 324v112l698 1100h217v-1049h272v-163h-272v-324h-174v324h-741zM297 487h512v836z" />
<glyph unicode="5" horiz-adv-x="1310" d="M131 432h184q23 -137 120 -207.5t218 -70.5q98 0 176 46t122 127t44 181q0 102 -44 183t-119.5 126t-167.5 45q-86 0 -167 -41t-135 -112h-182l139 827h799v-168h-659l-78 -453q61 53 143 80t170 27q140 0 252.5 -64.5t176 -180t63.5 -261.5q0 -154 -69.5 -274.5 t-191.5 -189t-274 -68.5q-129 0 -243.5 51t-189.5 152.5t-87 244.5z" />
<glyph unicode="6" horiz-adv-x="1310" d="M82 506q0 184 131 346l543 684h215l-449 -535q57 23 148 23q109 0 223.5 -65.5t190 -183.5t75.5 -269q0 -139 -70.5 -259t-190.5 -191.5t-259 -71.5q-152 0 -280 67.5t-202.5 187t-74.5 267.5zM254 510q0 -162 107.5 -259t275.5 -97q100 0 181 47t126 127t45 176 q0 111 -49 195.5t-134 131t-185 46.5q-111 0 -194 -48.5t-128 -132.5t-45 -186z" />
<glyph unicode="7" horiz-adv-x="1310" d="M164 1370v166h1065v-115l-795 -1421h-205l783 1370h-848z" />
<glyph unicode="8" horiz-adv-x="1310" d="M164 444q0 131 69.5 240t186.5 166q-84 49 -126 132t-42 192q0 106 53 193t145.5 138t206.5 51q113 0 205 -51t145.5 -138t53.5 -193q0 -109 -42 -192t-126 -132q119 -57 187.5 -164.5t68.5 -241.5q0 -129 -64.5 -235.5t-178 -167.5t-251.5 -61q-135 0 -247.5 61 t-178 167.5t-65.5 235.5zM340 457q0 -86 42 -161t114.5 -119t158.5 -44q88 0 161 44t115 119t42 161q0 88 -42 160.5t-115 114.5t-161 42q-86 0 -158.5 -42t-114.5 -114.5t-42 -160.5zM414 1147q0 -102 70.5 -172t172.5 -70t172 71t70 171q0 102 -69.5 173t-172.5 71 q-102 0 -172.5 -71t-70.5 -173z" />
<glyph unicode="9" horiz-adv-x="1310" d="M82 1030q0 139 70.5 259t190.5 191.5t259 71.5q152 0 280 -67.5t202.5 -187t74.5 -267.5q0 -184 -131 -346l-543 -684h-215l449 535q-57 -23 -148 -23q-109 0 -223.5 65.5t-190 183.5t-75.5 269zM252 1032q0 -111 49 -195.5t134 -131t186 -46.5q110 0 193 48.5t128 132.5 t45 186q0 162 -107.5 259t-275.5 97q-100 0 -181 -47t-126 -127t-45 -176z" />
<glyph unicode=":" horiz-adv-x="638" d="M205 94q0 47 34.5 81t79.5 34q47 0 81 -34t34 -81t-33.5 -80.5t-81.5 -33.5q-47 0 -80.5 33.5t-33.5 80.5zM205 930q0 47 34.5 80.5t79.5 33.5q47 0 81 -33.5t34 -80.5t-33.5 -81t-81.5 -34q-47 0 -80.5 34t-33.5 81z" />
<glyph unicode=";" horiz-adv-x="692" d="M193 -377l110 371q-29 14 -45 40.5t-16 59.5q0 47 34.5 81t79.5 34q47 0 81 -34t34 -81q0 -10 -4 -31l-4 -12l-146 -428h-124zM242 930q0 47 33.5 80.5t80.5 33.5t81 -33.5t34 -80.5t-34 -81t-81 -34t-80.5 34t-33.5 81z" />
<glyph unicode="&#x3c;" horiz-adv-x="1511" d="M190 625v190l1131 567v-176l-965 -485l965 -488v-180z" />
<glyph unicode="=" horiz-adv-x="1116" d="M197 391v158h723v-158h-723zM197 805v160h723v-160h-723z" />
<glyph unicode="&#x3e;" horiz-adv-x="1511" d="M190 53v180l965 488l-965 485v176l1131 -567v-190z" />
<glyph unicode="?" horiz-adv-x="1118" d="M92 1122q0 119 58.5 215.5t159 151.5t225.5 55q127 0 228 -54t158.5 -150.5t57.5 -217.5q0 -104 -30.5 -171.5t-75 -104.5t-113.5 -78q-76 -47 -112 -85t-36 -105v-148h-153v129q0 92 26.5 149.5t64.5 87t103 66.5q59 33 94 60.5t58.5 76t23.5 123.5q0 121 -82.5 198 t-211.5 77q-123 0 -205 -78t-86 -197h-152zM428 94q0 47 35 81t80 34q47 0 80.5 -34t33.5 -81t-33.5 -80.5t-80.5 -33.5t-81 33.5t-34 80.5z" />
<glyph unicode="@" horiz-adv-x="1660" d="M92 516q0 211 102.5 384t278.5 271.5t391 98.5q190 0 351 -75t257.5 -221.5t96.5 -350.5q0 -156 -52.5 -266.5t-138.5 -167t-190 -56.5q-80 0 -128 42t-56 106h-5q-37 -59 -105.5 -102.5t-150.5 -43.5q-129 0 -205.5 89t-76.5 233q0 119 50 222t140 165.5t203 62.5 q76 0 134.5 -33.5t82.5 -87.5h4l21 95h123q-37 -197 -78 -398q-16 -72 -17 -121q0 -53 21.5 -80.5t73.5 -27.5q94 0 156.5 96t62.5 258q0 166 -72 288t-203 186.5t-301 64.5q-182 0 -323.5 -81t-220 -225.5t-78.5 -326.5q0 -188 81.5 -328.5t225 -216t321.5 -75.5 q156 0 279 44t229 134l76 -95q-117 -102 -268.5 -154t-329.5 -52q-217 0 -390 93t-272.5 263t-99.5 389zM616 451q0 -74 37 -131.5t119 -57.5q80 0 134.5 51.5t81 126t26.5 144.5q0 88 -38 143t-122 55q-72 0 -126 -49t-83 -126t-29 -156z" />
<glyph unicode="A" horiz-adv-x="1298" d="M-2 0l647 1569h8l647 -1569h-194l-96 246h-721l-96 -246h-195zM352 408h594l-297 759z" />
<glyph unicode="B" horiz-adv-x="1341" d="M184 0v1536h543q117 0 214 -52t154.5 -145.5t57.5 -212.5t-53 -207t-152 -137q127 -39 201 -137t74 -239q0 -117 -56.5 -210.5t-152.5 -144.5t-213 -51h-617zM356 174h422q115 0 193 71.5t78 180.5q0 111 -79 184.5t-192 73.5h-422v-510zM356 852h353q113 0 191.5 74.5 t78.5 185.5q0 109 -78 179.5t-192 70.5h-353v-510z" />
<glyph unicode="C" horiz-adv-x="1519" d="M102 768q0 215 105.5 396.5t287 286.5t396.5 105q150 0 301 -63t256 -168l-125 -123q-84 84 -198.5 132t-233.5 48q-168 0 -309.5 -81.5t-223.5 -222t-82 -310.5t82 -310.5t223.5 -222t309.5 -81.5q119 0 233.5 48t198.5 132l125 -123q-104 -104 -256 -167.5t-301 -63.5 q-215 0 -396.5 105t-287 286.5t-105.5 396.5z" />
<glyph unicode="D" horiz-adv-x="1437" d="M143 0v1536h424q209 0 385 -103.5t279.5 -279.5t103.5 -385t-103.5 -385t-279.5 -279.5t-385 -103.5h-424zM315 174h250q166 0 302.5 77t215 213t78.5 304t-78.5 304t-215 213t-302.5 77h-250v-1188z" />
<glyph unicode="E" horiz-adv-x="1132" d="M197 0v1536h843v-168h-669v-516h583v-168h-583v-516h669v-168h-843z" />
<glyph unicode="F" horiz-adv-x="1081" d="M197 0v1536h843v-168h-669v-516h583v-168h-583v-684h-174z" />
<glyph unicode="G" horiz-adv-x="1689" d="M102 768q0 215 105.5 396.5t287 286.5t396.5 105q150 0 301 -63t256 -168l-125 -123q-84 84 -198.5 132t-233.5 48q-168 0 -309.5 -81.5t-223.5 -222t-82 -310.5t82 -310.5t223.5 -222t309.5 -81.5q119 0 232.5 47t197.5 131v313h-438v164h612v-809h-174v111 q-98 -61 -210 -96t-220 -35q-215 0 -396.5 105t-287 286.5t-105.5 396.5z" />
<glyph unicode="H" horiz-adv-x="1550" d="M184 0v1536h174v-680h834v680h174v-1536h-174v682h-834v-682h-174z" />
<glyph unicode="I" horiz-adv-x="565" d="M197 0v1536h174v-1536h-174z" />
<glyph unicode="J" horiz-adv-x="964" d="M-31 61l80 156q47 -33 115.5 -50t130.5 -17q147 0 233 98t86 244v1044h174v-1073q0 -139 -64.5 -249t-179 -172t-261.5 -62h-4q-173 0 -310 81z" />
<glyph unicode="K" horiz-adv-x="1230" d="M184 0v1536h174v-733l631 733h221l-649 -754l674 -782h-221l-656 762v-762h-174z" />
<glyph unicode="L" horiz-adv-x="958" d="M197 0v1536h174v-1362h567v-174h-741z" />
<glyph unicode="M" horiz-adv-x="1818" d="M197 0v1569h32l680 -1063l682 1063h33v-1569h-172v1051l-545 -854l-536 850v-1047h-174z" />
<glyph unicode="N" horiz-adv-x="1531" d="M197 0v1569h55l913 -1182v1149h172v-1569h-55l-911 1184v-1151h-174z" />
<glyph unicode="O" horiz-adv-x="1781" d="M102 768q0 215 105.5 396.5t287 286.5t396.5 105t396 -105t286.5 -286.5t105.5 -396.5t-105.5 -396.5t-286.5 -286.5t-396 -105t-396.5 105t-287 286.5t-105.5 396.5zM276 768q0 -168 83 -309.5t223.5 -223t308.5 -81.5t309 81.5t223 223t82 309.5t-82 309.5t-223 223 t-309 81.5t-308.5 -81.5t-223.5 -223t-83 -309.5z" />
<glyph unicode="P" horiz-adv-x="1292" d="M184 0v1536h637q119 0 217.5 -57.5t155.5 -156.5t57 -216q0 -119 -57 -216t-155.5 -153.5t-217.5 -56.5h-463v-680h-174zM358 846h447q119 0 195.5 68.5t76.5 189.5q0 117 -77.5 190.5t-194.5 73.5h-447v-522z" />
<glyph unicode="Q" horiz-adv-x="1826" d="M102 768q0 215 105.5 396.5t287 286.5t396.5 105t396 -105t286.5 -286.5t105.5 -396.5q0 -262 -155 -473l205 -201l-117 -117l-199 199q-106 -94 -240.5 -145t-281.5 -51q-215 0 -396.5 105t-287 286.5t-105.5 396.5zM276 768q0 -168 83 -309.5t223.5 -223t308.5 -81.5 q113 0 215 37.5t184 107.5l-170 172l111 111l166 -164q108 155 108 346q0 172 -82 313.5t-223 223t-309 81.5t-308.5 -81.5t-223.5 -223t-83 -309.5z" />
<glyph unicode="R" horiz-adv-x="1320" d="M143 0v1536h637q119 0 217.5 -57.5t155.5 -156.5t57 -216q0 -143 -84 -255t-217 -153l371 -698h-188l-365 680h-410v-680h-174zM317 846h447q119 0 195.5 68.5t76.5 189.5q0 117 -77.5 190.5t-194.5 73.5h-447v-522z" />
<glyph unicode="S" horiz-adv-x="1116" d="M61 221l125 125q147 -211 381 -211q135 0 224.5 73t89.5 191q0 82 -44 139.5t-109.5 93.5t-180.5 85q-137 57 -219 105t-137.5 129t-55.5 202t56.5 213t152.5 141t217 49q141 0 252 -56t191 -152l-105 -109q-88 92 -164 127t-170 35q-113 0 -189.5 -63.5t-76.5 -172.5 q0 -82 45 -137t110.5 -89t186.5 -83q127 -51 209 -101t138 -135t56 -214q0 -135 -62 -231.5t-168.5 -145.5t-235.5 -49q-156 0 -293.5 67.5t-223.5 173.5z" />
<glyph unicode="T" horiz-adv-x="1058" d="M20 1362v174h1018v-174h-422v-1362h-174v1362h-422z" />
<glyph unicode="U" horiz-adv-x="1513" d="M176 504v1032h174v-1004q0 -109 52.5 -194.5t144.5 -134.5t209 -49t210 49t145 135t52 194v1004h174v-1032q0 -150 -74.5 -269.5t-207.5 -187t-299 -67.5t-298 67.5t-207 187t-75 269.5z" />
<glyph unicode="V" horiz-adv-x="1298" d="M-2 1536h192l459 -1137l459 1137h192l-647 -1569h-8z" />
<glyph unicode="W" horiz-adv-x="1884" d="M-2 1536h188l469 -1143l199 490l-270 653h182l176 -434l176 434h182l-268 -653l199 -490l467 1143h188l-647 -1569h-8l-289 701l-289 -701h-8z" />
<glyph unicode="X" horiz-adv-x="1236" d="M0 0l524 778l-510 758h209l395 -612l396 612h209l-510 -756l524 -780h-211l-408 635l-407 -635h-211z" />
<glyph unicode="Y" horiz-adv-x="1245" d="M0 1536h217l408 -629l407 629h213l-534 -809v-727h-174v725z" />
<glyph unicode="Z" horiz-adv-x="1384" d="M68 0v31l907 1331h-844v174h1153v-31l-907 -1331h915v-174h-1224z" />
<glyph unicode="[" horiz-adv-x="616" d="M143 -512v2294h412v-129h-264v-2036h264v-129h-412z" />
<glyph unicode="\" horiz-adv-x="1226" d="M-23 1700h164l1080 -2048h-162z" />
<glyph unicode="]" horiz-adv-x="657" d="M102 -383h265v2036h-265v129h412v-2294h-412v129z" />
<glyph unicode="^" horiz-adv-x="1445" d="M76 406l569 1130h154l569 -1130h-145l-500 993l-502 -993h-145z" />
<glyph unicode="`" horiz-adv-x="583" d="M92 1432l99 108l301 -326l-64 -71z" />
<glyph unicode="a" d="M92 481q0 135 66.5 250t177 182.5t237.5 67.5q111 0 202 -41t155 -115v138h168v-963h-168v137q-63 -74 -154.5 -114.5t-202.5 -40.5q-127 0 -237.5 67.5t-177 182t-66.5 249.5zM260 481q0 -92 45 -168.5t122 -122t169 -45.5t169 45.5t121 122t44 168.5t-44 169t-121 122 t-169 45t-169 -45t-122 -122t-45 -169z" />
<glyph unicode="b" d="M143 0v1536h168v-711q63 74 154.5 115t202.5 41q127 0 237.5 -67.5t177 -182.5t66.5 -250t-66.5 -249.5t-177 -182t-237.5 -67.5q-111 0 -202 40.5t-155 114.5v-137h-168zM311 481q0 -92 44 -168.5t121 -122t169 -45.5t169 45.5t122 122t45 168.5t-45 169t-122 122 t-169 45t-169 -45t-121 -122t-44 -169z" />
<glyph unicode="c" horiz-adv-x="1118" d="M92 481q0 137 67.5 252t183.5 181.5t253 66.5q152 0 274.5 -80t182.5 -211l-154 -69q-41 90 -121 143t-182 53q-94 0 -171 -44t-121 -121t-44 -171t44 -171t121 -121t171 -44q102 0 182 53.5t121 143.5l154 -70q-59 -131 -182 -210.5t-275 -79.5q-137 0 -253 66.5 t-183.5 181t-67.5 251.5z" />
<glyph unicode="d" d="M92 481q0 135 66.5 250t177 182.5t237.5 67.5q111 0 202 -41t155 -115v711h168v-1536h-168v137q-63 -74 -154.5 -114.5t-202.5 -40.5q-127 0 -237.5 67.5t-177 182t-66.5 249.5zM260 481q0 -92 45 -168.5t122 -122t169 -45.5t169 45.5t121 122t44 168.5t-44 169t-121 122 t-169 45t-169 -45t-122 -122t-45 -169z" />
<glyph unicode="e" horiz-adv-x="1185" d="M92 481q0 137 66.5 252t182.5 181.5t253 66.5q135 0 248.5 -64.5t180.5 -176t71 -248.5l-2 -33h-842q4 -90 52 -165t125 -118t167 -43t168 43t125 119l141 -57q-63 -119 -178 -187.5t-254 -68.5t-255 66.5t-182.5 181t-66.5 251.5zM268 594h647q-33 104 -120.5 169.5 t-200.5 65.5q-115 0 -203 -64.5t-123 -170.5z" />
<glyph unicode="f" horiz-adv-x="667" d="M66 809v154h161v297q0 137 78 218t209 81q92 0 131 -29v-166q-20 16 -51 26.5t-59 10.5q-63 0 -101.5 -44t-38.5 -118v-276h254v-154h-254v-809h-168v809h-161z" />
<glyph unicode="g" d="M92 481q0 137 67.5 252t182.5 181.5t250 66.5q109 0 192.5 -38t143.5 -105v125h170v-963q0 -137 -67.5 -252t-183.5 -181.5t-253 -66.5q-145 0 -267 76t-186 201l135 94q43 -92 128 -149.5t190 -57.5q90 0 167 45t122 122t45 169v125q-59 -68 -143.5 -105.5t-192.5 -37.5 q-135 0 -250 67.5t-182.5 182t-67.5 249.5zM260 481q0 -90 45 -167.5t122 -123t169 -45.5q90 0 167 45.5t122 123t45 167.5q0 92 -45 169t-122 122t-167 45q-92 0 -169 -45t-122 -122t-45 -169z" />
<glyph unicode="h" horiz-adv-x="1026" d="M143 0v1536h168v-643q98 88 234 88q94 0 174 -47t127 -127t47 -174v-633h-168v621q0 86 -60.5 145t-144.5 59q-88 0 -147.5 -56t-61.5 -140v-629h-168z" />
<glyph unicode="i" horiz-adv-x="509" d="M143 1251q0 47 33 79t80 32q45 0 78 -32t33 -79q0 -45 -33 -77.5t-78 -32.5q-47 0 -80 32.5t-33 77.5zM172 0v963h166v-963h-166z" />
<glyph unicode="j" horiz-adv-x="509" d="M143 1251q0 47 33 79t80 32q45 0 78 -32t33 -79q0 -45 -33 -77.5t-78 -32.5q-47 0 -80 32.5t-33 77.5zM172 -481v1444h166v-1444h-166z" />
<glyph unicode="k" horiz-adv-x="968" d="M143 0v1536h168v-989l373 416h227l-407 -433l487 -530h-227l-453 502v-502h-168z" />
<glyph unicode="l" horiz-adv-x="454" d="M143 0v1536h168v-1536h-168z" />
<glyph unicode="m" horiz-adv-x="1570" d="M143 0v963h168v-86q45 49 101.5 76.5t119.5 27.5q74 0 145 -38t120 -103q49 66 123.5 103.5t158.5 37.5q99 0 180.5 -49t130 -134t48.5 -186v-612h-168v610q0 86 -57.5 146.5t-139.5 60.5q-84 0 -141.5 -60.5t-57.5 -148.5v-608h-167v610q0 86 -58.5 146.5t-140.5 60.5 t-139.5 -60.5t-57.5 -148.5v-608h-168z" />
<glyph unicode="n" horiz-adv-x="1026" d="M143 0v963h168v-70q98 88 234 88q94 0 174 -47t127 -127t47 -174v-633h-168v621q0 86 -60.5 145t-144.5 59q-88 0 -147.5 -56t-61.5 -140v-629h-168z" />
<glyph unicode="o" horiz-adv-x="1189" d="M92 481q0 135 67.5 250t183.5 182.5t253 67.5t252 -67.5t182.5 -182.5t67.5 -250t-67.5 -249.5t-182.5 -182t-252 -67.5t-253 67.5t-183.5 182t-67.5 249.5zM260 481q0 -92 45 -168.5t122 -122t169 -45.5q90 0 167 45.5t122 122t45 168.5t-45 169t-122 122t-167 45 q-92 0 -169 -45t-122 -122t-45 -169z" />
<glyph unicode="p" d="M143 -492v1455h168v-138q63 74 154.5 115t202.5 41q127 0 237.5 -67.5t177 -182.5t66.5 -250t-66.5 -249.5t-177 -182t-237.5 -67.5q-111 0 -202 40.5t-155 114.5v-629h-168zM311 481q0 -92 44 -168.5t121 -122t169 -45.5t169 45.5t122 122t45 168.5t-45 169t-122 122 t-169 45t-169 -45t-121 -122t-44 -169z" />
<glyph unicode="q" d="M92 481q0 135 66.5 250t177 182.5t237.5 67.5q111 0 202 -41t155 -115v138h168v-1455h-168v629q-63 -74 -154.5 -114.5t-202.5 -40.5q-127 0 -237.5 67.5t-177 182t-66.5 249.5zM260 481q0 -92 45 -168.5t122 -122t169 -45.5t169 45.5t121 122t44 168.5t-44 169t-121 122 t-169 45t-169 -45t-122 -122t-45 -169z" />
<glyph unicode="r" horiz-adv-x="681" d="M143 0v963h168v-150q39 80 101.5 124t146.5 44q80 0 139 -37l-57 -143q-39 16 -78 16q-109 0 -180.5 -88t-71.5 -219v-510h-168z" />
<glyph unicode="s" horiz-adv-x="868" d="M61 106l95 138q53 -47 124.5 -79t151.5 -32q86 0 136 38t50 103q0 45 -27.5 74t-66.5 44.5t-114 35.5q-100 29 -160 53.5t-104 76.5t-44 140q0 131 99.5 207t247.5 76q84 0 163.5 -25.5t143.5 -68.5l-97 -129q-106 76 -225 76q-80 0 -127 -32t-47 -87q0 -43 32 -71 t71.5 -40t136.5 -39q131 -35 205.5 -93t74.5 -185q0 -143 -96 -224t-260 -81q-111 0 -199 34.5t-164 89.5z" />
<glyph unicode="t" horiz-adv-x="667" d="M47 809v154h203v346h170v-346h201v-154h-201v-809h-170v809h-203z" />
<glyph unicode="u" horiz-adv-x="1015" d="M139 348v615h168v-596q0 -102 56.5 -162t144.5 -60q90 0 145.5 59.5t55.5 162.5v596h168v-615q0 -168 -100.5 -267t-268.5 -99t-268.5 99t-100.5 267z" />
<glyph unicode="v" horiz-adv-x="966" d="M16 963h181l286 -658l287 658h180l-463 -996h-10z" />
<glyph unicode="w" horiz-adv-x="1431" d="M16 963h183l221 -605l256 605h78l258 -611l221 611h182l-383 -996h-12l-305 711l-305 -711h-13z" />
<glyph unicode="x" horiz-adv-x="1038" d="M16 0l402 481l-402 482h203l299 -361l301 361h203l-401 -482l401 -481h-203l-299 360l-299 -360h-205z" />
<glyph unicode="y" horiz-adv-x="991" d="M16 963h187l301 -773l282 773h189l-584 -1455h-178l195 494z" />
<glyph unicode="z" horiz-adv-x="962" d="M55 0l533 809h-496v154h801l-535 -809h529v-154h-832z" />
<glyph unicode="{" horiz-adv-x="632" d="M117 580v110q68 33 100.5 74t42.5 99.5t10 158.5v496q0 113 60.5 188.5t150.5 75.5h90v-121h-55q-61 0 -87 -45t-26 -135v-488q0 -127 -28.5 -213t-112.5 -145q84 -59 112.5 -145.5t28.5 -213.5v-489q0 -90 26 -133t87 -43h55v-123h-90q-90 0 -150.5 76t-60.5 186v498 q0 102 -10 159.5t-43 98.5t-100 74z" />
<glyph unicode="|" horiz-adv-x="610" d="M248 -307v1843h112v-1843h-112z" />
<glyph unicode="}" horiz-adv-x="632" d="M61 -389h56q61 0 86.5 43t25.5 133v489q0 127 29 213t113 146q-84 59 -113 145t-29 213v488q0 90 -25.5 135t-86.5 45h-56v121h91q90 0 150 -76t60 -188v-496q0 -100 10.5 -158.5t43.5 -99.5t100 -74v-110q-68 -33 -100.5 -74t-43 -98.5t-10.5 -159.5v-498 q0 -111 -60 -186.5t-150 -75.5h-91v123z" />
<glyph unicode="~" horiz-adv-x="1196" d="M90 362q-6 106 31 189.5t109.5 129.5t168.5 46q80 0 138.5 -36t119.5 -111q37 -45 68 -68t76 -23q70 0 115 58.5t38 154.5h150l2 -34q0 -141 -83 -233.5t-210 -92.5q-94 0 -155.5 43t-125.5 113q-37 43 -67.5 61.5t-67.5 18.5q-74 0 -116.5 -61.5t-40.5 -154.5h-150z" />
<glyph unicode="&#xa1;" horiz-adv-x="626" d="M199 930q0 47 34.5 80.5t79.5 33.5q47 0 81 -33.5t34 -80.5t-34 -81t-81 -34t-80.5 34t-33.5 81zM229 -512v1094h168v-1094h-168z" />
<glyph unicode="&#xa2;" horiz-adv-x="1118" d="M92 721q0 127 57.5 234.5t158 177t222.5 84.5v219h109v-217q139 -10 249.5 -88t164.5 -201l-154 -70q-41 90 -121 143.5t-182 53.5q-94 0 -171 -44t-121 -121t-44 -171t44 -171t121 -121t171 -44q102 0 182 53.5t121 143.5l154 -70q-53 -123 -164 -201t-250 -88v-225 h-109v227q-123 14 -223 84t-157.5 177.5t-57.5 234.5z" />
<glyph unicode="&#xa3;" horiz-adv-x="1286" d="M76 0v152l164 8v512h-164v153h164v242q0 141 60 253t169 174t248 62q150 0 277.5 -94t172.5 -237l-170 -76q-16 98 -98 163.5t-182 65.5q-135 0 -217 -86t-82 -225v-242h381v-153h-381v-508h731v-164h-1073z" />
<glyph unicode="&#xa4;" horiz-adv-x="1253" d="M164 377l104 102q-88 115 -88 264q0 152 88 265l-102 100l92 98l104 -106q57 45 127 68.5t142 23.5q143 0 262 -90l102 102l95 -92l-103 -102q90 -119 90 -267q0 -147 -90 -266l103 -100l-93 -98l-104 106q-119 -90 -266 -90q-148 0 -267 90l-104 -106zM309 739 q0 -86 43 -157.5t116 -113.5t159 -42t158.5 43t115.5 115.5t43 158.5t-43 159t-115.5 115t-158.5 42t-159 -43t-116 -117t-43 -160z" />
<glyph unicode="&#xa5;" horiz-adv-x="1245" d="M0 1536h217l408 -629l407 629h213l-526 -797h397v-143h-405v-172h403v-143h-403v-281h-174v281h-406v143h406v172h-406v143h395z" />
<glyph unicode="&#xa6;" horiz-adv-x="610" d="M248 -307v737h112v-737h-112zM248 799v737h112v-737h-112z" />
<glyph unicode="&#xa7;" horiz-adv-x="1048" d="M61 1147q0 125 56.5 218t153 143.5t216.5 50.5q133 0 245 -58.5t177 -150.5l-139 -111q-45 70 -116.5 107.5t-161.5 37.5q-109 0 -182.5 -57t-73.5 -162q0 -74 40.5 -127t102 -88t166.5 -82q131 -59 211 -109t137 -135t57 -212q0 -100 -34.5 -181t-98.5 -137 q76 -57 118 -131t42 -178q0 -123 -55.5 -214t-152.5 -141.5t-216 -50.5q-133 0 -245.5 58.5t-178.5 150.5l139 111q45 -70 118 -107.5t163 -37.5q109 0 181.5 56t72.5 163q0 74 -41 127t-102.5 88t-165.5 82q-131 59 -211 109t-137.5 135t-57.5 212q0 195 135 318 q-162 117 -162 303zM262 537q0 -80 44 -137.5t108.5 -95.5t177.5 -87l57 -27q59 33 93 86.5t34 124.5q0 80 -43 137.5t-109.5 95.5t-174.5 87l-58 27q-129 -68 -129 -211z" />
<glyph unicode="&#xa8;" horiz-adv-x="790" d="M93 1253q0 49 33.5 82t80.5 33t81 -32.5t34 -82.5q0 -45 -34 -78.5t-81 -33.5t-80.5 33.5t-33.5 78.5zM469 1253q0 49 34 82t81 33t81 -32.5t34 -82.5q0 -47 -34 -79.5t-81 -32.5t-81 33.5t-34 78.5z" />
<glyph unicode="&#xa9;" horiz-adv-x="1781" d="M102 768q0 213 106.5 394t288 287.5t394.5 106.5t394 -106.5t287.5 -287.5t106.5 -394t-106.5 -394t-287.5 -287.5t-394 -106.5t-394.5 106.5t-288 287.5t-106.5 394zM203 768q0 -188 92 -346t249.5 -250t346.5 -92q188 0 347 92t251 250t92 346t-92 346t-251 250 t-347 92t-346 -92t-250 -250t-92 -346zM455 768q0 121 58 221.5t158.5 158.5t221.5 58q82 0 166 -34.5t143 -94.5l-69 -67q-45 47 -110 73.5t-130 26.5q-94 0 -172 -45t-124 -124t-46 -173t46 -172t124 -123t172 -45q66 0 130 26.5t110 73.5l69 -69q-59 -59 -143 -94 t-166 -35q-121 0 -221.5 58t-158.5 158.5t-58 221.5z" />
<glyph unicode="&#xaa;" horiz-adv-x="860" d="M74 1229q0 86 42 159.5t112.5 116.5t154.5 43q76 0 139.5 -35.5t102.5 -97.5v121h114v-614h-114v118q-39 -61 -101.5 -96t-140.5 -35q-84 0 -154.5 43t-112.5 116t-42 161zM188 1229q0 -90 63.5 -154.5t154.5 -64.5q90 0 154.5 64.5t64.5 154.5q0 88 -64.5 151.5 t-154.5 63.5t-154 -62.5t-64 -152.5z" />
<glyph unicode="&#xab;" horiz-adv-x="1316" d="M242 571l311 377h143l-311 -377l311 -376h-143zM618 571l312 377h147l-311 -377l311 -376h-147z" />
<glyph unicode="&#xac;" horiz-adv-x="1640" d="M190 750v149h1260v-674h-147v525h-1113z" />
<glyph unicode="&#xad;" horiz-adv-x="1269" d="M92 459v145h717v-145h-717z" />
<glyph unicode="&#xae;" horiz-adv-x="1781" d="M102 768q0 213 106.5 394t288 287.5t394.5 106.5t394 -106.5t287.5 -287.5t106.5 -394t-106.5 -394t-287.5 -287.5t-394 -106.5t-394.5 106.5t-288 287.5t-106.5 394zM203 768q0 -188 92 -346t249.5 -250t346.5 -92q188 0 347 92t251 250t92 346t-92 346t-251 250 t-347 92t-346 -92t-250 -250t-92 -346zM610 272v992h359q76 0 140.5 -37t101 -100.5t36.5 -139.5q0 -88 -48 -157.5t-126 -100.5l205 -457h-121l-196 439h-238v-439h-113zM723 819h235q76 0 126.5 44t50.5 122q0 76 -50.5 123t-126.5 47h-235v-336z" />
<glyph unicode="&#xaf;" horiz-adv-x="819" d="M92 1233v115h635v-115h-635z" />
<glyph unicode="&#xb0;" horiz-adv-x="1249" d="M295 1415q0 90 44 166t120 120t166 44q88 0 163.5 -44t120.5 -120t45 -166q0 -88 -45 -163.5t-120.5 -121t-163.5 -45.5q-90 0 -166 45.5t-120 121t-44 163.5zM385 1415q0 -100 69.5 -169.5t170.5 -69.5q100 0 169.5 69.5t69.5 169.5t-69.5 170t-169.5 70t-170 -69.5 t-70 -170.5z" />
<glyph unicode="&#xb2;" horiz-adv-x="708" d="M51 614v86q182 193 271.5 302.5t118 165t28.5 100.5q0 68 -36 98.5t-85 30.5q-59 0 -91 -36t-32 -97h-166q0 131 80 208.5t211 77.5q125 0 203 -73.5t78 -200.5q0 -104 -69.5 -214t-252.5 -296h346v-152h-604z" />
<glyph unicode="&#xb3;" horiz-adv-x="724" d="M59 877l168 2q0 -51 39 -85t94 -34q59 0 99.5 41t40.5 100t-39 96t-99 37h-86v142h76q47 0 79 32.5t32 79.5t-32 76t-79 29q-45 0 -72.5 -27t-27.5 -68l-164 2q0 109 76 178.5t188 69.5q111 0 186.5 -69.5t75.5 -171.5q0 -55 -23.5 -100.5t-64.5 -73.5q66 -37 103 -98.5 t37 -137.5q0 -80 -41 -148.5t-111 -107.5t-156 -39q-125 0 -212 78t-87 197z" />
<glyph unicode="&#xb4;" horiz-adv-x="583" d="M92 1214l303 326l97 -108l-334 -289z" />
<glyph unicode="&#xb5;" horiz-adv-x="1222" d="M178 -512v1536h168v-621q0 -74 37 -137t100.5 -100t139.5 -37t141 37t103 100.5t38 136.5v621h168v-1024h-168v152q-57 -80 -142 -126t-185 -46q-76 0 -146 27.5t-125 78.5v-598h-129z" />
<glyph unicode="&#xb6;" horiz-adv-x="1290" d="M219 1194q0 166 96.5 254t268.5 88h159v-1843h-94v1157h-65q-172 0 -268.5 89t-96.5 255zM936 -307v1843h94v-1843h-94z" />
<glyph unicode="&#xb7;" horiz-adv-x="583" d="M199 737q0 37 27.5 64.5t64.5 27.5t65.5 -27.5t28.5 -64.5q0 -39 -28.5 -65.5t-65.5 -26.5t-64.5 26.5t-27.5 65.5z" />
<glyph unicode="&#xb8;" horiz-adv-x="632" d="M92 -397l92 37q20 -31 63.5 -51.5t82.5 -20.5q47 0 78.5 32.5t31.5 80.5q0 49 -31.5 77.5t-82.5 28.5q-39 0 -84 -18l-80 51l92 184h100l-65 -139q27 6 53 6q86 0 142.5 -53.5t56.5 -136.5q0 -90 -61.5 -151.5t-149.5 -61.5q-72 0 -140.5 38.5t-97.5 96.5z" />
<glyph unicode="&#xb9;" horiz-adv-x="483" d="M61 1384v152h299v-922h-165v770h-134z" />
<glyph unicode="&#xba;" horiz-adv-x="813" d="M74 1229q0 86 44 159.5t120.5 116.5t167.5 43q92 0 167.5 -43t120.5 -116.5t45 -159.5q0 -88 -44 -161t-120.5 -116t-168.5 -43q-91 0 -167.5 43t-120.5 116t-44 161zM188 1229q0 -90 63.5 -154.5t154.5 -64.5q90 0 154.5 64.5t64.5 154.5q0 88 -64.5 151.5t-154.5 63.5 t-154 -62.5t-64 -152.5z" />
<glyph unicode="&#xbb;" horiz-adv-x="1316" d="M240 195l311 376l-311 377h143l311 -377l-311 -376h-143zM616 195l312 376l-312 377h148l311 -377l-311 -376h-148z" />
<glyph unicode="&#xbf;" horiz-adv-x="1118" d="M92 -96q0 104 31 171.5t75 104.5t113 78q76 47 112 85t36 106v147h153v-129q0 -92 -26.5 -149.5t-64.5 -87t-103 -66.5q-59 -33 -94 -60.5t-58.5 -75.5t-23.5 -124q0 -121 83 -198t212 -77q123 0 204.5 78t85.5 197h152q0 -119 -58.5 -215.5t-158.5 -151.5t-225 -55 q-127 0 -228.5 54t-159 150.5t-57.5 217.5zM414 932q0 47 33.5 81t80.5 34t81 -34t34 -81q0 -45 -34 -80t-81 -35t-80.5 34t-33.5 81z" />
<glyph unicode="&#xc0;" horiz-adv-x="1298" d="M-2 0l647 1569h8l647 -1569h-194l-96 246h-721l-96 -246h-195zM317 1944l99 108l301 -326l-64 -71zM352 408h594l-297 759z" />
<glyph unicode="&#xc1;" horiz-adv-x="1298" d="M-2 0l647 1569h8l647 -1569h-194l-96 246h-721l-96 -246h-195zM352 408h594l-297 759zM544 1726l304 326l96 -108l-334 -289z" />
<glyph unicode="&#xc2;" horiz-adv-x="1298" d="M-2 0l647 1569h8l647 -1569h-194l-96 246h-721l-96 -246h-195zM352 408h594l-297 759zM362 1710l201 297h172l203 -297l-86 -51l-201 237l-205 -237z" />
<glyph unicode="&#xc3;" horiz-adv-x="1298" d="M-2 0l647 1569h8l647 -1569h-194l-96 246h-721l-96 -246h-195zM293 1649q0 123 59.5 202.5t159.5 79.5q111 0 189 -112q18 -27 36.5 -41.5t49.5 -14.5q47 0 71.5 40t24.5 120h123q0 -123 -57.5 -203t-161.5 -80q-113 0 -189 113q-37 55 -82 55q-47 0 -72.5 -45 t-25.5 -114h-125zM352 408h594l-297 759z" />
<glyph unicode="&#xc4;" horiz-adv-x="1298" d="M-2 0l647 1569h8l647 -1569h-194l-96 246h-721l-96 -246h-195zM349 1826q0 49 33.5 82t80.5 33t81 -32.5t34 -82.5q0 -45 -34 -78.5t-81 -33.5t-80.5 33.5t-33.5 78.5zM352 408h594l-297 759zM725 1826q0 49 34 82t81 33t81 -32.5t34 -82.5q0 -47 -34 -79.5t-81 -32.5 t-81 33.5t-34 78.5z" />
<glyph unicode="&#xc5;" horiz-adv-x="1298" d="M-2 0l633 1532q-86 4 -147.5 66.5t-61.5 148.5q0 88 63.5 151.5t153.5 63.5q88 0 150.5 -63.5t62.5 -151.5q0 -80 -53.5 -141.5t-130.5 -71.5l632 -1534h-194l-96 246h-721l-96 -246h-195zM352 408h594l-297 759zM516 1747q0 -53 35 -89t88 -36q51 0 87 36t36 89 q0 51 -36 89t-87 38t-87 -38t-36 -89z" />
<glyph unicode="&#xc6;" horiz-adv-x="1763" d="M-2 0l616 1536h1057v-174h-672v-506h586v-174h-586v-508h672v-174h-842v365h-491l-143 -365h-197zM401 530h428v856h-92z" />
<glyph unicode="&#xc7;" horiz-adv-x="1519" d="M102 768q0 215 105.5 396.5t287 286.5t396.5 105q150 0 301 -63t256 -168l-125 -123q-84 84 -198.5 132t-233.5 48q-168 0 -309.5 -81.5t-223.5 -222t-82 -310.5t82 -310.5t223.5 -222t309.5 -81.5q119 0 233.5 48t198.5 132l125 -123q-100 -100 -243.5 -162.5 t-286.5 -68.5l-54 -115q29 6 54 6q86 0 142 -53.5t56 -136.5q0 -90 -61.5 -151.5t-149.5 -61.5q-72 0 -140.5 38.5t-96.5 96.5l92 37q20 -31 63 -51.5t82 -20.5q47 0 79 32.5t32 80.5q0 49 -32 77.5t-83 28.5q-37 0 -84 -18l-80 51l82 164q-199 16 -363.5 124.5t-259 282.5 t-94.5 377z" />
<glyph unicode="&#xc8;" horiz-adv-x="1132" d="M197 0v1536h843v-168h-669v-516h583v-168h-583v-516h669v-168h-843zM284 1944l99 108l301 -326l-64 -71z" />
<glyph unicode="&#xc9;" horiz-adv-x="1132" d="M197 0v1536h843v-168h-669v-516h583v-168h-583v-516h669v-168h-843zM512 1726l304 326l96 -108l-334 -289z" />
<glyph unicode="&#xca;" horiz-adv-x="1132" d="M197 0v1536h843v-168h-669v-516h583v-168h-583v-516h669v-168h-843zM329 1710l201 297h172l203 -297l-86 -51l-201 237l-205 -237z" />
<glyph unicode="&#xcb;" horiz-adv-x="1132" d="M197 0v1536h843v-168h-669v-516h583v-168h-583v-516h669v-168h-843zM316 1826q0 49 33.5 82t80.5 33t81 -32.5t34 -82.5q0 -45 -34 -78.5t-81 -33.5t-80.5 33.5t-33.5 78.5zM692 1826q0 49 34 82t81 33t81 -32.5t34 -82.5q0 -47 -34 -79.5t-81 -32.5t-81 33.5t-34 78.5z " />
<glyph unicode="&#xcc;" horiz-adv-x="565" d="M-52 1944l99 108l301 -326l-64 -71zM197 0v1536h174v-1536h-174z" />
<glyph unicode="&#xcd;" horiz-adv-x="565" d="M176 1726l304 326l96 -108l-334 -289zM197 0v1536h174v-1536h-174z" />
<glyph unicode="&#xce;" horiz-adv-x="565" d="M-6 1710l201 297h172l203 -297l-86 -51l-201 237l-205 -237zM197 0v1536h174v-1536h-174z" />
<glyph unicode="&#xcf;" horiz-adv-x="565" d="M-20 1826q0 49 33.5 82t80.5 33t81 -32.5t34 -82.5q0 -45 -34 -78.5t-81 -33.5t-80.5 33.5t-33.5 78.5zM197 0v1536h174v-1536h-174zM356 1826q0 49 34 82t81 33t81 -32.5t34 -82.5q0 -47 -34 -79.5t-81 -32.5t-81 33.5t-34 78.5z" />
<glyph unicode="&#xd0;" horiz-adv-x="1437" d="M-14 698v119h157v719h424q209 0 385 -103.5t279.5 -279.5t103.5 -385t-103.5 -385t-279.5 -279.5t-385 -103.5h-424v698h-157zM315 174h250q166 0 302.5 77t215 213t78.5 304t-78.5 304t-215 213t-302.5 77h-250v-545h273v-119h-273v-524z" />
<glyph unicode="&#xd1;" horiz-adv-x="1531" d="M197 0v1569h55l913 -1182v1149h172v-1569h-55l-911 1184v-1151h-174zM407 1649q0 123 59.5 202.5t159.5 79.5q111 0 189 -112q18 -27 36.5 -41.5t49.5 -14.5q47 0 71.5 40t24.5 120h123q0 -123 -57.5 -203t-161.5 -80q-113 0 -189 113q-37 55 -82 55q-47 0 -72.5 -45 t-25.5 -114h-125z" />
<glyph unicode="&#xd2;" horiz-adv-x="1781" d="M102 768q0 215 105.5 396.5t287 286.5t396.5 105t396 -105t286.5 -286.5t105.5 -396.5t-105.5 -396.5t-286.5 -286.5t-396 -105t-396.5 105t-287 286.5t-105.5 396.5zM276 768q0 -168 83 -309.5t223.5 -223t308.5 -81.5t309 81.5t223 223t82 309.5t-82 309.5t-223 223 t-309 81.5t-308.5 -81.5t-223.5 -223t-83 -309.5zM557 1944l99 108l301 -326l-64 -71z" />
<glyph unicode="&#xd3;" horiz-adv-x="1781" d="M102 768q0 215 105.5 396.5t287 286.5t396.5 105t396 -105t286.5 -286.5t105.5 -396.5t-105.5 -396.5t-286.5 -286.5t-396 -105t-396.5 105t-287 286.5t-105.5 396.5zM276 768q0 -168 83 -309.5t223.5 -223t308.5 -81.5t309 81.5t223 223t82 309.5t-82 309.5t-223 223 t-309 81.5t-308.5 -81.5t-223.5 -223t-83 -309.5zM784 1726l304 326l96 -108l-334 -289z" />
<glyph unicode="&#xd4;" horiz-adv-x="1781" d="M102 768q0 215 105.5 396.5t287 286.5t396.5 105t396 -105t286.5 -286.5t105.5 -396.5t-105.5 -396.5t-286.5 -286.5t-396 -105t-396.5 105t-287 286.5t-105.5 396.5zM276 768q0 -168 83 -309.5t223.5 -223t308.5 -81.5t309 81.5t223 223t82 309.5t-82 309.5t-223 223 t-309 81.5t-308.5 -81.5t-223.5 -223t-83 -309.5zM602 1710l201 297h172l203 -297l-86 -51l-201 237l-205 -237z" />
<glyph unicode="&#xd5;" horiz-adv-x="1781" d="M102 768q0 215 105.5 396.5t287 286.5t396.5 105t396 -105t286.5 -286.5t105.5 -396.5t-105.5 -396.5t-286.5 -286.5t-396 -105t-396.5 105t-287 286.5t-105.5 396.5zM276 768q0 -168 83 -309.5t223.5 -223t308.5 -81.5t309 81.5t223 223t82 309.5t-82 309.5t-223 223 t-309 81.5t-308.5 -81.5t-223.5 -223t-83 -309.5zM532 1649q0 123 59.5 202.5t159.5 79.5q111 0 189 -112q18 -27 36.5 -41.5t49.5 -14.5q47 0 71.5 40t24.5 120h123q0 -123 -57.5 -203t-161.5 -80q-113 0 -189 113q-37 55 -82 55q-47 0 -72.5 -45t-25.5 -114h-125z" />
<glyph unicode="&#xd6;" horiz-adv-x="1781" d="M102 768q0 215 105.5 396.5t287 286.5t396.5 105t396 -105t286.5 -286.5t105.5 -396.5t-105.5 -396.5t-286.5 -286.5t-396 -105t-396.5 105t-287 286.5t-105.5 396.5zM276 768q0 -168 83 -309.5t223.5 -223t308.5 -81.5t309 81.5t223 223t82 309.5t-82 309.5t-223 223 t-309 81.5t-308.5 -81.5t-223.5 -223t-83 -309.5zM588 1826q0 49 33.5 82t80.5 33t81 -32.5t34 -82.5q0 -45 -34 -78.5t-81 -33.5t-80.5 33.5t-33.5 78.5zM964 1826q0 49 34 82t81 33t81 -32.5t34 -82.5q0 -47 -34 -79.5t-81 -32.5t-81 33.5t-34 78.5z" />
<glyph unicode="&#xd7;" horiz-adv-x="1155" d="M197 395l268 269l-268 266l110 112l271 -266l268 266l112 -112l-270 -266l270 -269l-112 -112l-268 268l-271 -268z" />
<glyph unicode="&#xd8;" horiz-adv-x="1781" d="M102 768q0 215 105.5 396.5t287 286.5t396.5 105q211 0 389 -102l123 178l127 -80l-127 -184q129 -111 202.5 -266.5t73.5 -333.5q0 -215 -105.5 -396.5t-286.5 -286.5t-396 -105q-205 0 -387 100l-125 -178l-129 78l131 186q-131 111 -205 267.5t-74 334.5zM276 768 q0 -135 54.5 -254t150.5 -205l699 1004q-133 70 -289 69q-168 0 -308.5 -81.5t-223.5 -223t-83 -309.5zM604 223q133 -70 287 -69q168 0 309 81.5t223 223t82 309.5q0 135 -53 254t-149 205z" />
<glyph unicode="&#xd9;" horiz-adv-x="1513" d="M176 504v1032h174v-1004q0 -109 52.5 -194.5t144.5 -134.5t209 -49t210 49t145 135t52 194v1004h174v-1032q0 -150 -74.5 -269.5t-207.5 -187t-299 -67.5t-298 67.5t-207 187t-75 269.5zM421 1944l99 108l301 -326l-64 -71z" />
<glyph unicode="&#xda;" horiz-adv-x="1513" d="M176 504v1032h174v-1004q0 -109 52.5 -194.5t144.5 -134.5t209 -49t210 49t145 135t52 194v1004h174v-1032q0 -150 -74.5 -269.5t-207.5 -187t-299 -67.5t-298 67.5t-207 187t-75 269.5zM649 1726l304 326l96 -108l-334 -289z" />
<glyph unicode="&#xdb;" horiz-adv-x="1513" d="M176 504v1032h174v-1004q0 -109 52.5 -194.5t144.5 -134.5t209 -49t210 49t145 135t52 194v1004h174v-1032q0 -150 -74.5 -269.5t-207.5 -187t-299 -67.5t-298 67.5t-207 187t-75 269.5zM467 1710l201 297h172l203 -297l-86 -51l-201 237l-205 -237z" />
<glyph unicode="&#xdc;" horiz-adv-x="1513" d="M176 504v1032h174v-1004q0 -109 52.5 -194.5t144.5 -134.5t209 -49t210 49t145 135t52 194v1004h174v-1032q0 -150 -74.5 -269.5t-207.5 -187t-299 -67.5t-298 67.5t-207 187t-75 269.5zM453 1826q0 49 33.5 82t80.5 33t81 -32.5t34 -82.5q0 -45 -34 -78.5t-81 -33.5 t-80.5 33.5t-33.5 78.5zM829 1826q0 49 34 82t81 33t81 -32.5t34 -82.5q0 -47 -34 -79.5t-81 -32.5t-81 33.5t-34 78.5z" />
<glyph unicode="&#xdd;" horiz-adv-x="1245" d="M0 1536h217l408 -629l407 629h213l-534 -809v-727h-174v725zM518 1726l304 326l96 -108l-334 -289z" />
<glyph unicode="&#xde;" horiz-adv-x="1259" d="M199 0v1528h168v-205h385q116 0 214.5 -58.5t156 -157.5t57.5 -216q0 -115 -57.5 -213t-156 -154.5t-214.5 -56.5h-385v-467h-168zM367 635h370q117 0 193 72.5t76 187.5t-76 187.5t-193 72.5h-370v-520z" />
<glyph unicode="&#xdf;" horiz-adv-x="1392" d="M199 0v1098q0 125 63.5 225t174 156.5t247.5 56.5q133 0 238.5 -54.5t165 -149.5t59.5 -214q0 -102 -43 -188t-119 -146q115 -53 182.5 -155.5t67.5 -229.5q0 -115 -53.5 -206t-145.5 -142t-202 -51h-172v174h143q109 0 184.5 61.5t75.5 172.5q0 78 -39 142t-105.5 102 t-146.5 38h-117v141h50q76 0 140 38t102 102.5t38 142.5q0 119 -85 195.5t-216 76.5q-90 0 -162.5 -37.5t-114.5 -103t-42 -147.5v-1098h-168z" />
<glyph unicode="&#xe0;" d="M92 481q0 135 66.5 250t177 182.5t237.5 67.5q111 0 202 -41t155 -115v138h168v-963h-168v137q-63 -74 -154.5 -114.5t-202.5 -40.5q-127 0 -237.5 67.5t-177 182t-66.5 249.5zM260 481q0 -92 45 -168.5t122 -122t169 -45.5t169 45.5t121 122t44 168.5t-44 169t-121 122 t-169 45t-169 -45t-122 -122t-45 -169zM260 1371l99 108l301 -326l-64 -71z" />
<glyph unicode="&#xe1;" d="M92 481q0 135 66.5 250t177 182.5t237.5 67.5q111 0 202 -41t155 -115v138h168v-963h-168v137q-63 -74 -154.5 -114.5t-202.5 -40.5q-127 0 -237.5 67.5t-177 182t-66.5 249.5zM260 481q0 -92 45 -168.5t122 -122t169 -45.5t169 45.5t121 122t44 168.5t-44 169t-121 122 t-169 45t-169 -45t-122 -122t-45 -169zM487 1153l304 326l96 -108l-334 -289z" />
<glyph unicode="&#xe2;" d="M92 481q0 135 66.5 250t177 182.5t237.5 67.5q111 0 202 -41t155 -115v138h168v-963h-168v137q-63 -74 -154.5 -114.5t-202.5 -40.5q-127 0 -237.5 67.5t-177 182t-66.5 249.5zM260 481q0 -92 45 -168.5t122 -122t169 -45.5t169 45.5t121 122t44 168.5t-44 169t-121 122 t-169 45t-169 -45t-122 -122t-45 -169zM305 1137l201 297h172l203 -297l-86 -51l-201 237l-205 -237z" />
<glyph unicode="&#xe3;" d="M92 481q0 135 66.5 250t177 182.5t237.5 67.5q111 0 202 -41t155 -115v138h168v-963h-168v137q-63 -74 -154.5 -114.5t-202.5 -40.5q-127 0 -237.5 67.5t-177 182t-66.5 249.5zM235 1076q0 123 59.5 202.5t159.5 79.5q111 0 189 -112q18 -27 36.5 -41.5t49.5 -14.5 q47 0 71.5 40t24.5 120h123q0 -123 -57.5 -203t-161.5 -80q-113 0 -189 113q-37 55 -82 55q-47 0 -72.5 -45t-25.5 -114h-125zM260 481q0 -92 45 -168.5t122 -122t169 -45.5t169 45.5t121 122t44 168.5t-44 169t-121 122t-169 45t-169 -45t-122 -122t-45 -169z" />
<glyph unicode="&#xe4;" d="M92 481q0 135 66.5 250t177 182.5t237.5 67.5q111 0 202 -41t155 -115v138h168v-963h-168v137q-63 -74 -154.5 -114.5t-202.5 -40.5q-127 0 -237.5 67.5t-177 182t-66.5 249.5zM260 481q0 -92 45 -168.5t122 -122t169 -45.5t169 45.5t121 122t44 168.5t-44 169t-121 122 t-169 45t-169 -45t-122 -122t-45 -169zM291 1253q0 49 33.5 82t80.5 33t81 -32.5t34 -82.5q0 -45 -34 -78.5t-81 -33.5t-80.5 33.5t-33.5 78.5zM667 1253q0 49 34 82t81 33t81 -32.5t34 -82.5q0 -47 -34 -79.5t-81 -32.5t-81 33.5t-34 78.5z" />
<glyph unicode="&#xe5;" d="M92 481q0 135 66.5 250t177 182.5t237.5 67.5q111 0 202 -41t155 -115v138h168v-963h-168v137q-63 -74 -154.5 -114.5t-202.5 -40.5q-127 0 -237.5 67.5t-177 182t-66.5 249.5zM260 481q0 -92 45 -168.5t122 -122t169 -45.5t169 45.5t121 122t44 168.5t-44 169t-121 122 t-169 45t-169 -45t-122 -122t-45 -169zM377 1315q0 88 63.5 151.5t153.5 63.5q88 0 150.5 -63.5t62.5 -151.5t-62.5 -151.5t-150.5 -63.5t-152.5 63.5t-64.5 151.5zM471 1315q0 -53 35 -89t88 -36q51 0 87 36t36 89q0 51 -36 89t-87 38t-87 -38t-36 -89z" />
<glyph unicode="&#xe6;" horiz-adv-x="1853" d="M92 289q0 141 103.5 222t279.5 81h268v37q0 94 -63.5 155.5t-161.5 61.5q-78 0 -139.5 -39t-79.5 -100l-164 53q37 98 143.5 159.5t241.5 61.5q119 0 212 -49t140 -133q72 84 172.5 133t217.5 49q135 0 248.5 -64.5t180 -176t70.5 -248.5l-2 -33h-841q4 -90 52 -165 t124.5 -118t167.5 -43q90 0 167.5 43t124.5 119l142 -57q-63 -119 -178 -187.5t-254 -68.5q-123 0 -227.5 52t-174.5 142q-96 -92 -206.5 -143t-215.5 -51q-154 0 -251 85t-97 222zM260 285q0 -72 50 -114t136 -42q82 0 173.5 51t166.5 137q-23 61 -24 127h-281 q-104 0 -162.5 -41t-58.5 -118zM936 594h647q-33 104 -121 169.5t-200 65.5q-115 0 -203 -64.5t-123 -170.5z" />
<glyph unicode="&#xe7;" horiz-adv-x="1118" d="M92 481q0 137 67.5 252t183.5 181.5t253 66.5q152 0 274.5 -80t182.5 -211l-154 -69q-41 90 -121 143t-182 53q-94 0 -171 -44t-121 -121t-44 -171t44 -171t121 -121t171 -44q102 0 182 53.5t121 143.5l154 -70q-53 -123 -163 -199.5t-249 -88.5l-55 -119q27 6 53 6 q86 0 142.5 -53.5t56.5 -136.5q0 -90 -61.5 -151.5t-149.5 -61.5q-72 0 -140.5 38.5t-97.5 96.5l92 37q20 -31 63.5 -51.5t82.5 -20.5q47 0 78.5 32.5t31.5 80.5q0 49 -31.5 77.5t-82.5 28.5q-39 0 -84 -18l-80 51l82 164q-125 12 -227.5 81.5t-162 179t-59.5 236.5z" />
<glyph unicode="&#xe8;" horiz-adv-x="1185" d="M92 481q0 137 66.5 252t182.5 181.5t253 66.5q135 0 248.5 -64.5t180.5 -176t71 -248.5l-2 -33h-842q4 -90 52 -165t125 -118t167 -43t168 43t125 119l141 -57q-63 -119 -178 -187.5t-254 -68.5t-255 66.5t-182.5 181t-66.5 251.5zM268 594h647q-33 104 -120.5 169.5 t-200.5 65.5q-115 0 -203 -64.5t-123 -170.5zM270 1381l99 108l301 -326l-64 -71z" />
<glyph unicode="&#xe9;" horiz-adv-x="1185" d="M92 481q0 137 66.5 252t182.5 181.5t253 66.5q135 0 248.5 -64.5t180.5 -176t71 -248.5l-2 -33h-842q4 -90 52 -165t125 -118t167 -43t168 43t125 119l141 -57q-63 -119 -178 -187.5t-254 -68.5t-255 66.5t-182.5 181t-66.5 251.5zM268 594h647q-33 104 -120.5 169.5 t-200.5 65.5q-115 0 -203 -64.5t-123 -170.5zM497 1163l304 326l96 -108l-334 -289z" />
<glyph unicode="&#xea;" horiz-adv-x="1185" d="M92 481q0 137 66.5 252t182.5 181.5t253 66.5q135 0 248.5 -64.5t180.5 -176t71 -248.5l-2 -33h-842q4 -90 52 -165t125 -118t167 -43t168 43t125 119l141 -57q-63 -119 -178 -187.5t-254 -68.5t-255 66.5t-182.5 181t-66.5 251.5zM268 594h647q-33 104 -120.5 169.5 t-200.5 65.5q-115 0 -203 -64.5t-123 -170.5zM315 1147l201 297h172l203 -297l-86 -51l-201 237l-205 -237z" />
<glyph unicode="&#xeb;" horiz-adv-x="1185" d="M92 481q0 137 66.5 252t182.5 181.5t253 66.5q135 0 248.5 -64.5t180.5 -176t71 -248.5l-2 -33h-842q4 -90 52 -165t125 -118t167 -43t168 43t125 119l141 -57q-63 -119 -178 -187.5t-254 -68.5t-255 66.5t-182.5 181t-66.5 251.5zM268 594h647q-33 104 -120.5 169.5 t-200.5 65.5q-115 0 -203 -64.5t-123 -170.5zM301 1263q0 49 33.5 82t80.5 33t81 -32.5t34 -82.5q0 -45 -34 -78.5t-81 -33.5t-80.5 33.5t-33.5 78.5zM677 1263q0 49 34 82t81 33t81 -32.5t34 -82.5q0 -47 -34 -79.5t-81 -32.5t-81 33.5t-34 78.5z" />
<glyph unicode="&#xec;" horiz-adv-x="563" d="M-52 1371l99 108l301 -326l-64 -71zM199 0v963h168v-963h-168z" />
<glyph unicode="&#xed;" horiz-adv-x="563" d="M176 1153l304 326l96 -108l-334 -289zM199 0v963h168v-963h-168z" />
<glyph unicode="&#xee;" horiz-adv-x="563" d="M-6 1137l201 297h172l203 -297l-86 -51l-201 237l-205 -237zM199 0v963h168v-963h-168z" />
<glyph unicode="&#xef;" horiz-adv-x="563" d="M-20 1253q0 49 33.5 82t80.5 33t81 -32.5t34 -82.5q0 -45 -34 -78.5t-81 -33.5t-80.5 33.5t-33.5 78.5zM199 0v963h168v-963h-168zM356 1253q0 49 34 82t81 33t81 -32.5t34 -82.5q0 -47 -34 -79.5t-81 -32.5t-81 33.5t-34 78.5z" />
<glyph unicode="&#xf0;" horiz-adv-x="1216" d="M92 481q0 135 69.5 250t188.5 182.5t260 67.5q84 0 164 -27.5t146 -79.5q-72 219 -224 343l-106 -136l-78 60l104 131q-131 72 -288 76l26 122q184 0 342 -98l88 111l74 -58l-86 -108q164 -135 259 -358.5t95 -493.5v-2q0 -143 -68.5 -253t-186 -169t-261.5 -59 q-141 0 -260 67.5t-188.5 182t-69.5 249.5zM256 481q0 -96 47 -178t128 -129t179 -47q97 0 176.5 47t127 129t47.5 178t-47.5 178t-127 129.5t-176.5 47.5q-98 0 -179 -47.5t-128 -129t-47 -178.5z" />
<glyph unicode="&#xf1;" horiz-adv-x="1026" d="M143 0v963h168v-70q98 88 234 88q94 0 174 -47t127 -127t47 -174v-633h-168v621q0 86 -60.5 145t-144.5 59q-88 0 -147.5 -56t-61.5 -140v-629h-168zM162 1076q0 123 59.5 202.5t159.5 79.5q111 0 189 -112q18 -27 36.5 -41.5t49.5 -14.5q47 0 71.5 40t24.5 120h123 q0 -123 -57.5 -203t-161.5 -80q-113 0 -189 113q-37 55 -82 55q-47 0 -72.5 -45t-25.5 -114h-125z" />
<glyph unicode="&#xf2;" horiz-adv-x="1189" d="M92 481q0 135 67.5 250t183.5 182.5t253 67.5t252 -67.5t182.5 -182.5t67.5 -250t-67.5 -249.5t-182.5 -182t-252 -67.5t-253 67.5t-183.5 182t-67.5 249.5zM260 481q0 -92 45 -168.5t122 -122t169 -45.5q90 0 167 45.5t122 122t45 168.5t-45 169t-122 122t-167 45 q-92 0 -169 -45t-122 -122t-45 -169zM262 1371l99 108l301 -326l-64 -71z" />
<glyph unicode="&#xf3;" horiz-adv-x="1189" d="M92 481q0 135 67.5 250t183.5 182.5t253 67.5t252 -67.5t182.5 -182.5t67.5 -250t-67.5 -249.5t-182.5 -182t-252 -67.5t-253 67.5t-183.5 182t-67.5 249.5zM260 481q0 -92 45 -168.5t122 -122t169 -45.5q90 0 167 45.5t122 122t45 168.5t-45 169t-122 122t-167 45 q-92 0 -169 -45t-122 -122t-45 -169zM489 1153l304 326l96 -108l-334 -289z" />
<glyph unicode="&#xf4;" horiz-adv-x="1189" d="M92 481q0 135 67.5 250t183.5 182.5t253 67.5t252 -67.5t182.5 -182.5t67.5 -250t-67.5 -249.5t-182.5 -182t-252 -67.5t-253 67.5t-183.5 182t-67.5 249.5zM260 481q0 -92 45 -168.5t122 -122t169 -45.5q90 0 167 45.5t122 122t45 168.5t-45 169t-122 122t-167 45 q-92 0 -169 -45t-122 -122t-45 -169zM307 1137l201 297h172l203 -297l-86 -51l-201 237l-205 -237z" />
<glyph unicode="&#xf5;" horiz-adv-x="1189" d="M92 481q0 135 67.5 250t183.5 182.5t253 67.5t252 -67.5t182.5 -182.5t67.5 -250t-67.5 -249.5t-182.5 -182t-252 -67.5t-253 67.5t-183.5 182t-67.5 249.5zM237 1076q0 123 59.5 202.5t159.5 79.5q111 0 189 -112q18 -27 36.5 -41.5t49.5 -14.5q47 0 71.5 40t24.5 120 h123q0 -123 -57.5 -203t-161.5 -80q-113 0 -189 113q-37 55 -82 55q-47 0 -72.5 -45t-25.5 -114h-125zM260 481q0 -92 45 -168.5t122 -122t169 -45.5q90 0 167 45.5t122 122t45 168.5t-45 169t-122 122t-167 45q-92 0 -169 -45t-122 -122t-45 -169z" />
<glyph unicode="&#xf6;" horiz-adv-x="1189" d="M92 481q0 135 67.5 250t183.5 182.5t253 67.5t252 -67.5t182.5 -182.5t67.5 -250t-67.5 -249.5t-182.5 -182t-252 -67.5t-253 67.5t-183.5 182t-67.5 249.5zM260 481q0 -92 45 -168.5t122 -122t169 -45.5q90 0 167 45.5t122 122t45 168.5t-45 169t-122 122t-167 45 q-92 0 -169 -45t-122 -122t-45 -169zM293 1253q0 49 33.5 82t80.5 33t81 -32.5t34 -82.5q0 -45 -34 -78.5t-81 -33.5t-80.5 33.5t-33.5 78.5zM669 1253q0 49 34 82t81 33t81 -32.5t34 -82.5q0 -47 -34 -79.5t-81 -32.5t-81 33.5t-34 78.5z" />
<glyph unicode="&#xf7;" horiz-adv-x="1116" d="M197 596v160h723v-160h-723zM436 319q0 47 36 83t83 36q49 0 86 -35.5t37 -83.5q0 -51 -37 -85.5t-86 -34.5t-84 34.5t-35 85.5zM436 1032q0 49 36 85t83 36q49 0 86 -36t37 -85t-37 -84t-86 -35t-84 35t-35 84z" />
<glyph unicode="&#xf8;" horiz-adv-x="1189" d="M92 481q0 135 67.5 250t183.5 182.5t253 67.5q131 0 244 -61l104 149l88 -55l-108 -154q82 -69 128 -168.5t46 -210.5q0 -135 -67.5 -249.5t-182.5 -182t-252 -67.5q-129 0 -242 61l-106 -152l-86 54l108 155q-84 68 -131 167.5t-47 213.5zM260 481q0 -71 27.5 -134.5 t77.5 -110.5l380 546q-70 35 -149 35q-92 0 -169 -45t-122 -122t-45 -169zM449 178q72 -33 147 -33q90 0 167 45.5t122 122t45 168.5q0 70 -26.5 132.5t-74.5 109.5z" />
<glyph unicode="&#xf9;" horiz-adv-x="1015" d="M139 348v615h168v-596q0 -102 56.5 -162t144.5 -60q90 0 145.5 59.5t55.5 162.5v596h168v-615q0 -168 -100.5 -267t-268.5 -99t-268.5 99t-100.5 267zM174 1371l99 108l301 -326l-64 -71z" />
<glyph unicode="&#xfa;" horiz-adv-x="1015" d="M139 348v615h168v-596q0 -102 56.5 -162t144.5 -60q90 0 145.5 59.5t55.5 162.5v596h168v-615q0 -168 -100.5 -267t-268.5 -99t-268.5 99t-100.5 267zM401 1153l304 326l96 -108l-334 -289z" />
<glyph unicode="&#xfb;" horiz-adv-x="1015" d="M139 348v615h168v-596q0 -102 56.5 -162t144.5 -60q90 0 145.5 59.5t55.5 162.5v596h168v-615q0 -168 -100.5 -267t-268.5 -99t-268.5 99t-100.5 267zM219 1137l201 297h172l203 -297l-86 -51l-201 237l-205 -237z" />
<glyph unicode="&#xfc;" horiz-adv-x="1015" d="M139 348v615h168v-596q0 -102 56.5 -162t144.5 -60q90 0 145.5 59.5t55.5 162.5v596h168v-615q0 -168 -100.5 -267t-268.5 -99t-268.5 99t-100.5 267zM205 1253q0 49 33.5 82t80.5 33t81 -32.5t34 -82.5q0 -45 -34 -78.5t-81 -33.5t-80.5 33.5t-33.5 78.5zM581 1253 q0 49 34 82t81 33t81 -32.5t34 -82.5q0 -47 -34 -79.5t-81 -32.5t-81 33.5t-34 78.5z" />
<glyph unicode="&#xfd;" horiz-adv-x="991" d="M16 963h187l301 -773l282 773h189l-584 -1455h-178l195 494zM378 1153l304 326l96 -108l-334 -289z" />
<glyph unicode="&#xfe;" horiz-adv-x="1271" d="M184 -481v2017h168v-698q63 68 151.5 105.5t194.5 37.5q127 0 238 -67.5t177.5 -182.5t66.5 -250t-66.5 -249.5t-177.5 -182t-238 -67.5q-106 0 -194 37.5t-152 105.5v-606h-168zM342 481q0 -92 45 -168.5t122 -122t169 -45.5q90 0 167 45.5t122 122t45 168.5t-45 169 t-122 122t-167 45q-92 0 -169 -45t-122 -122t-45 -169z" />
<glyph unicode="&#xff;" horiz-adv-x="991" d="M16 963h187l301 -773l282 773h189l-584 -1455h-178l195 494zM183 1253q0 49 33.5 82t80.5 33t81 -32.5t34 -82.5q0 -45 -34 -78.5t-81 -33.5t-80.5 33.5t-33.5 78.5zM559 1253q0 49 34 82t81 33t81 -32.5t34 -82.5q0 -47 -34 -79.5t-81 -32.5t-81 33.5t-34 78.5z" />
<glyph unicode="&#x152;" horiz-adv-x="2445" d="M102 768q0 215 105.5 396.5t287 286.5t396.5 105q197 0 366.5 -89t278.5 -244v313h817v-168h-674v-516h588v-168h-588v-516h674v-168h-817v313q-109 -156 -279 -244.5t-366 -88.5q-215 0 -396.5 105t-287 286.5t-105.5 396.5zM270 768q0 -170 83 -312.5t226.5 -225.5 t313.5 -83q168 0 310.5 83t225 225.5t82.5 312.5t-82.5 312.5t-225 225.5t-310.5 83q-170 0 -313.5 -83t-226.5 -225.5t-83 -312.5z" />
<glyph unicode="&#x153;" horiz-adv-x="2056" d="M92 481q0 135 67.5 250t183.5 182.5t253 67.5t253 -67.5t181 -180.5q66 113 181.5 180.5t252.5 67.5q135 0 249 -64.5t180.5 -176t70.5 -248.5l-2 -33h-842q4 -90 52.5 -165t125 -118t166.5 -43t168 43t125 119l141 -57q-63 -119 -177.5 -187.5t-254.5 -68.5 q-139 0 -254.5 67.5t-181.5 179.5q-68 -113 -182.5 -180t-251.5 -67t-253 67.5t-183.5 182t-67.5 249.5zM250 481q0 -94 46 -173t126 -125t174 -46q92 0 171 46t125 125t46 173t-46 173t-125 125t-171 46q-94 0 -174 -46t-126 -125t-46 -173zM1139 594h647 q-33 104 -121 169.5t-201 65.5q-114 0 -202 -64.5t-123 -170.5z" />
<glyph unicode="&#x178;" horiz-adv-x="1245" d="M0 1536h217l408 -629l407 629h213l-534 -809v-727h-174v725zM322 1826q0 49 33.5 82t80.5 33t81 -32.5t34 -82.5q0 -45 -34 -78.5t-81 -33.5t-80.5 33.5t-33.5 78.5zM698 1826q0 49 34 82t81 33t81 -32.5t34 -82.5q0 -47 -34 -79.5t-81 -32.5t-81 33.5t-34 78.5z" />
<glyph unicode="&#x2c6;" horiz-adv-x="759" d="M92 1239l201 297h172l203 -297l-86 -51l-201 237l-205 -237z" />
<glyph unicode="&#x2dc;" horiz-adv-x="897" d="M92 1262q0 123 59.5 202.5t159.5 79.5q111 0 189 -112q18 -27 36.5 -41.5t49.5 -14.5q47 0 71.5 40t24.5 120h123q0 -123 -57.5 -203t-161.5 -80q-113 0 -189 113q-37 55 -82 55q-47 0 -72.5 -45t-25.5 -114h-125z" />
<glyph unicode="&#x2000;" horiz-adv-x="1026" />
<glyph unicode="&#x2001;" horiz-adv-x="2052" />
<glyph unicode="&#x2002;" horiz-adv-x="1026" />
<glyph unicode="&#x2003;" horiz-adv-x="2052" />
<glyph unicode="&#x2004;" horiz-adv-x="684" />
<glyph unicode="&#x2005;" horiz-adv-x="513" />
<glyph unicode="&#x2006;" horiz-adv-x="342" />
<glyph unicode="&#x2007;" horiz-adv-x="342" />
<glyph unicode="&#x2008;" horiz-adv-x="256" />
<glyph unicode="&#x2009;" horiz-adv-x="410" />
<glyph unicode="&#x200a;" horiz-adv-x="114" />
<glyph unicode="&#x2010;" horiz-adv-x="901" d="M92 467v131h717v-131h-717z" />
<glyph unicode="&#x2011;" horiz-adv-x="901" d="M92 467v131h717v-131h-717z" />
<glyph unicode="&#x2012;" horiz-adv-x="901" d="M92 467v131h717v-131h-717z" />
<glyph unicode="&#x2013;" horiz-adv-x="1208" d="M92 467v131h1024v-131h-1024z" />
<glyph unicode="&#x2014;" horiz-adv-x="2048" d="M0 467v131h2048v-131h-2048z" />
<glyph unicode="&#x2018;" horiz-adv-x="409" d="M27 1065q0 10 4 31l4 12l145 428h125l-110 -371q28 -14 44.5 -40.5t16.5 -59.5q0 -45 -34 -80t-81 -35q-45 0 -79.5 35t-34.5 80z" />
<glyph unicode="&#x2019;" horiz-adv-x="501" d="M166 971l110 370q-29 14 -45 41t-16 60q0 47 35 80.5t80 33.5q47 0 80.5 -33.5t33.5 -80.5q0 -10 -4 -31l-4 -12l-145 -428h-125z" />
<glyph unicode="&#x201a;" horiz-adv-x="438" d="M119 -377l110 371q-29 14 -45 40.5t-16 59.5q0 47 35 81t80 34q47 0 80.5 -34t33.5 -81q0 -10 -4 -31l-4 -12l-145 -428h-125z" />
<glyph unicode="&#x201c;" horiz-adv-x="782" d="M27 1065q0 10 4 31l4 12l145 428h125l-110 -371q29 -14 45 -40.5t16 -59.5q0 -45 -34 -80t-81 -35q-45 0 -79.5 35t-34.5 80zM399 1065q0 10 4 31l5 12l145 428h125l-111 -371q29 -14 45.5 -40.5t16.5 -59.5q0 -45 -34 -80t-81 -35q-45 0 -80 35t-35 80z" />
<glyph unicode="&#x201d;" horiz-adv-x="886" d="M166 969l110 370q-29 14 -45 41t-16 60q0 47 35 80.5t80 33.5q47 0 80.5 -33.5t33.5 -80.5q0 -10 -4 -31l-4 -12l-145 -428h-125zM551 971l110 370q-29 14 -45 41t-16 60q0 47 35 80.5t80 33.5q47 0 80.5 -33.5t33.5 -80.5q0 -10 -4 -31l-4 -12l-145 -428h-125z" />
<glyph unicode="&#x201e;" horiz-adv-x="782" d="M119 -377l110 371q-29 14 -45 40.5t-16 59.5q0 47 35 81t80 34q47 0 80.5 -34t33.5 -81q0 -10 -4 -31l-4 -12l-145 -428h-125zM463 -377l110 371q-29 14 -45 40.5t-16 59.5q0 47 35 81t80 34q47 0 80.5 -34t33.5 -81q0 -10 -4 -31l-4 -12l-145 -428h-125z" />
<glyph unicode="&#x2022;" horiz-adv-x="980" d="M240 664q0 66 34.5 124t93 92.5t124.5 34.5t123 -34.5t91.5 -93t34.5 -123.5q0 -70 -34.5 -127.5t-92 -90t-122.5 -32.5q-68 0 -125.5 32.5t-92 90t-34.5 127.5z" />
<glyph unicode="&#x2026;" horiz-adv-x="1546" d="M92 94q0 47 35 81t80 34q47 0 81 -34t34 -81t-34 -80.5t-81 -33.5t-81 33.5t-34 80.5zM651 94q0 47 35 81t80 34q47 0 81 -34t34 -81t-34 -80.5t-81 -33.5t-81 33.5t-34 80.5zM1225 94q0 47 35 81t80 34q47 0 81 -34t34 -81t-34 -80.5t-81 -33.5t-81 33.5t-34 80.5z" />
<glyph unicode="&#x202f;" horiz-adv-x="410" />
<glyph unicode="&#x2039;" horiz-adv-x="731" d="M119 571l311 377h143l-311 -377l311 -376h-143z" />
<glyph unicode="&#x203a;" horiz-adv-x="731" d="M158 195l311 376l-311 377h143l311 -377l-311 -376h-143z" />
<glyph unicode="&#x205f;" horiz-adv-x="513" />
<glyph unicode="&#x20ac;" horiz-adv-x="1603" d="M23 520v144h86q-6 53 -7 104q0 49 7 94h-86v144h116q49 160 159 284.5t263.5 195t329.5 70.5q150 0 301 -63t256 -168l-125 -123q-84 84 -198.5 132t-233.5 48q-190 0 -345 -103t-222 -273h708v-144h-749q-6 -45 -7 -94q0 -57 9 -104h747v-144h-704q72 -166 223 -266 t340 -100q119 0 233.5 48t198.5 132l125 -123q-104 -104 -256 -167.5t-301 -63.5q-174 0 -325.5 68.5t-262 191t-162.5 280.5h-118z" />
<glyph unicode="&#x2122;" horiz-adv-x="1622" d="M96 1442v94h494v-94h-195v-625h-106v625h-193zM682 817v719h115l256 -383l258 383h112v-719h-104v553l-266 -395l-265 391v-549h-106z" />
<glyph unicode="&#x25fc;" horiz-adv-x="962" d="M0 0v963h963v-963h-963z" />
<glyph unicode="&#xfb03;" horiz-adv-x="1691" d="M66 803v160h161v297q0 137 78 218t209 81q92 0 131 -29v-166q-20 16 -51 27q-31 10 -59 10q-63 0 -102 -44q-38 -44 -38 -118v-276h387v297q0 137 78 218t209 81q92 0 131 -29v-166q-20 16 -51 27q-31 10 -59 10q-63 0 -102 -44q-38 -44 -38 -118v-276h254v-160h-254 v-803h-168v803h-387v-803h-168v803h-161zM1325 1251q0 47 33 79t80 32q45 0 78 -32t33 -79q0 -45 -33 -77.5t-78 -32.5q-47 0 -80 32.5t-33 77.5zM1354 0v963h166v-963h-166z" />
<glyph unicode="&#xfb04;" horiz-adv-x="1634" d="M66 803v160h161v297q0 137 78 218t209 81q92 0 131 -29v-166q-20 16 -51 27q-31 10 -59 10q-63 0 -102 -44q-38 -44 -38 -118v-276h387v297q0 137 78 218t209 81q92 0 131 -29v-166q-20 16 -51 27q-31 10 -59 10q-63 0 -102 -44q-38 -44 -38 -118v-276h254v-160h-254 v-803h-168v803h-387v-803h-168v803h-161zM1323 0v1536h168v-1536h-168z" />
</font>
</defs>
</svg>
